<?xml version="1.0" standalone="no"?>
<!DOCTYPE svg PUBLIC "-//W3C//DTD SVG 20010904//EN"
 "http://www.w3.org/TR/2001/REC-SVG-20010904/DTD/svg10.dtd">
<svg version="1.0" xmlns="http://www.w3.org/2000/svg"
 width="2878.000000pt" height="1436.000000pt" viewBox="0 0 2878.000000 1436.000000"
 preserveAspectRatio="xMidYMid meet">
<metadata>
Created by potrace 1.15, written by Peter Selinger 2001-2017
</metadata>
<g transform="translate(0.000000,1436.000000) scale(0.100000,-0.100000)"
fill="#000000" stroke="none">
<path d="M1250 11359 c-168 -28 -329 -160 -404 -332 l-31 -72 0 -3795 c0
-3716 0 -3796 19 -3854 55 -165 207 -309 381 -357 42 -12 627 -14 3815 -14
3646 0 3767 1 3820 19 176 59 313 192 366 352 19 58 19 137 19 3844 0 3707 0
3786 -19 3844 -25 74 -83 165 -147 227 -63 61 -191 125 -279 139 -84 13 -7461
12 -7540 -1z m4680 -2762 c0 -2 -326 -633 -724 -1403 l-725 -1399 -181 -3
-182 -2 69 132 c38 73 365 706 728 1406 l658 1272 179 0 c98 0 178 -1 178 -3z
m-2132 -823 l-3 -177 -565 -218 c-311 -120 -569 -220 -574 -222 -5 -2 249
-103 565 -224 l574 -222 3 -175 c1 -97 1 -176 -1 -176 -3 0 -348 139 -768 308
l-764 308 -3 171 c-2 128 1 173 10 180 14 11 1507 622 1521 623 4 0 6 -79 5
-176z m3216 -130 c413 -169 757 -311 764 -317 9 -7 12 -52 10 -180 l-3 -171
-764 -308 c-420 -169 -765 -308 -768 -308 -2 0 -2 79 -1 176 l3 175 574 222
c316 121 570 222 565 224 -5 2 -263 102 -574 222 l-565 218 -3 177 c-1 97 0
176 4 176 3 0 344 -138 758 -306z"/>
<path d="M16700 9500 c-266 -21 -441 -91 -586 -235 -68 -67 -89 -95 -127 -175
-81 -170 -156 -551 -237 -1200 -16 -135 -37 -266 -46 -292 -34 -105 -151 -192
-275 -205 -38 -4 -69 -13 -79 -23 -13 -13 -21 -58 -34 -187 -21 -195 -17 -213
38 -213 43 0 126 -26 151 -48 107 -91 119 -260 55 -775 -34 -272 -45 -506 -31
-620 25 -198 83 -329 201 -448 116 -118 247 -172 445 -185 69 -5 94 -3 108 8
15 11 24 54 47 233 19 146 26 225 19 236 -6 13 -27 20 -69 25 -129 14 -205 96
-231 249 -15 89 -6 345 21 590 30 263 36 540 16 635 -36 169 -124 266 -291
320 l-40 13 72 13 c106 18 202 66 266 133 30 31 61 70 70 86 32 63 57 178 82
380 30 239 83 593 120 800 18 96 35 160 56 202 56 116 160 178 319 192 66 6
86 11 99 28 13 15 23 75 41 227 21 184 22 208 9 222 -21 20 -65 23 -189 14z"/>
<path d="M26864 9500 c-12 -5 -25 -13 -28 -18 -9 -15 -57 -402 -54 -436 3 -34
17 -41 99 -51 86 -11 155 -76 190 -180 20 -58 17 -459 -5 -630 -29 -232 -41
-503 -27 -607 25 -196 122 -319 289 -368 23 -7 41 -14 39 -16 -1 -2 -38 -10
-82 -19 -129 -27 -216 -78 -281 -166 -61 -84 -81 -155 -114 -417 -34 -268 -89
-630 -125 -825 -31 -165 -66 -241 -136 -297 -55 -43 -141 -74 -234 -85 -89 -9
-102 -13 -110 -32 -6 -16 -55 -388 -55 -420 0 -6 8 -19 17 -29 15 -15 32 -16
144 -10 294 16 487 90 640 245 119 121 171 258 243 641 32 165 87 542 116 785
12 99 30 204 40 232 40 116 133 186 269 203 94 12 98 19 116 189 21 204 21
219 -11 231 -14 6 -40 10 -58 10 -17 0 -56 12 -84 26 -67 33 -106 96 -123 198
-13 82 -1 315 31 576 48 388 51 614 10 770 -65 253 -236 425 -473 479 -97 23
-213 32 -243 21z"/>
<path d="M23425 9390 c-184 -7 -210 -12 -220 -38 -6 -15 -124 -1242 -125
-1302 -1 -18 -14 0 -47 64 -109 208 -252 291 -473 272 -292 -24 -471 -207
-609 -621 -43 -130 -103 -397 -126 -559 -50 -354 -42 -739 20 -975 72 -270
223 -422 450 -450 207 -25 376 59 514 257 13 18 24 32 26 30 1 -2 -5 -57 -15
-123 -9 -66 -15 -126 -13 -133 9 -22 48 -24 272 -15 177 7 224 11 236 24 12
12 58 392 210 1740 107 948 197 1740 200 1759 13 78 -10 83 -300 70z m-645
-1511 c65 -15 108 -52 141 -123 45 -95 53 -159 53 -391 -1 -276 -42 -589 -109
-818 -57 -198 -132 -277 -265 -277 -165 0 -249 134 -266 423 -13 232 42 690
108 897 55 173 122 261 217 286 57 16 66 16 121 3z"/>
<path d="M11404 8871 c-110 -4 -166 -10 -177 -19 -17 -15 -29 -81 -52 -287 -8
-77 -18 -154 -21 -172 l-5 -31 -109 -4 c-84 -2 -113 -7 -125 -19 -11 -11 -27
-79 -48 -206 -27 -164 -29 -193 -17 -208 11 -14 31 -16 132 -13 l119 3 -5 -25
c-17 -82 -128 -994 -147 -1205 -19 -209 -17 -427 5 -510 41 -155 130 -270 258
-330 112 -53 195 -67 398 -67 249 1 383 26 395 76 3 11 17 109 30 216 32 262
31 263 -140 208 -81 -26 -210 -43 -265 -34 -139 21 -180 114 -161 360 11 142
132 1309 136 1314 1 1 110 7 241 13 132 5 249 12 260 14 12 3 26 17 32 32 12
31 65 324 65 360 0 53 -10 55 -217 49 -105 -4 -222 -9 -260 -12 l-68 -5 6 48
c17 116 58 380 62 400 4 14 -2 29 -15 42 -23 23 -8 23 -307 12z"/>
<path d="M13572 8380 c-91 -12 -224 -57 -299 -101 -156 -94 -286 -279 -366
-524 -67 -203 -139 -683 -153 -1015 -23 -540 159 -870 521 -945 106 -22 304
-22 421 0 301 56 500 252 618 605 95 287 178 1002 147 1279 -27 251 -89 411
-205 527 -81 81 -157 123 -281 154 -93 24 -290 34 -403 20z m225 -451 c44 -16
102 -80 125 -137 21 -53 23 -70 22 -252 -1 -133 -8 -251 -23 -370 -80 -646
-143 -853 -285 -934 -54 -32 -113 -40 -179 -26 -103 21 -165 102 -186 242 -22
142 17 578 84 953 63 345 139 494 272 531 48 13 126 10 170 -7z"/>
<path d="M18010 8380 c-335 -43 -562 -232 -699 -583 -143 -366 -210 -998 -146
-1377 19 -117 71 -270 116 -347 74 -126 213 -231 355 -268 146 -38 399 -36
599 5 132 27 192 47 200 68 6 15 54 387 55 420 0 22 -39 52 -68 52 -15 0 -80
-18 -144 -40 -248 -86 -439 -76 -514 27 -115 159 -124 570 -23 1058 64 306
143 460 264 510 82 35 220 18 395 -49 114 -44 162 -51 189 -28 19 15 25 43 48
224 29 233 28 249 -31 273 -111 46 -433 76 -596 55z"/>
<path d="M20142 8380 c-41 -5 -112 -23 -158 -39 -240 -83 -390 -253 -503 -573
-60 -171 -132 -619 -153 -956 -26 -408 44 -684 217 -858 126 -127 270 -176
515 -176 410 1 644 164 801 559 108 272 203 1015 171 1335 -48 484 -257 700
-692 713 -69 2 -158 0 -198 -5z m225 -451 c44 -16 102 -80 125 -137 21 -53 23
-70 22 -252 -1 -145 -8 -251 -28 -410 -50 -409 -92 -612 -150 -735 -41 -86
-75 -127 -134 -162 -39 -23 -58 -27 -117 -27 -144 1 -220 79 -245 254 -25 176
49 837 127 1140 63 248 171 360 328 343 28 -3 60 -9 72 -14z"/>
<path d="M25175 8381 c-465 -77 -723 -420 -820 -1087 -69 -472 -54 -849 45
-1101 37 -96 128 -225 195 -275 66 -50 177 -103 245 -118 95 -20 266 -28 390
-19 129 10 346 51 392 75 33 17 32 11 58 251 22 208 20 227 -25 239 -14 4 -61
-5 -112 -21 -188 -56 -236 -66 -353 -68 -138 -2 -175 8 -240 69 -87 81 -140
249 -140 440 0 79 1 84 23 88 12 3 253 12 536 21 283 9 522 20 532 26 24 12
26 21 46 199 11 107 17 241 17 430 0 254 -1 281 -22 355 -70 253 -213 416
-422 480 -63 19 -268 28 -345 16z m137 -461 c25 0 86 -57 108 -100 38 -75 52
-158 53 -315 0 -161 -8 -200 -46 -214 -12 -5 -147 -15 -300 -22 l-277 -14 0
25 c0 48 30 207 55 295 49 169 106 267 181 311 42 24 148 46 189 38 11 -2 28
-4 37 -4z"/>
</g>
</svg>
